<svg width="16" height="16" viewBox="0 0 16 16" fill="none" xmlns="http://www.w3.org/2000/svg">
<path d="M9.41551 8.00025L15.7076 1.70812C16.0986 1.31753 16.0986 0.683782 15.7076 0.293192C15.3167 -0.0977308 14.6836 -0.0977308 14.2927 0.293192L8.00058 6.58532L1.70812 0.293192C1.3172 -0.0977308 0.684116 -0.0977308 0.293192 0.293192C-0.0977308 0.683782 -0.0977308 1.31753 0.293192 1.70812L6.58565 8.00025L0.293192 14.2924C-0.0977308 14.683 -0.0977308 15.3167 0.293192 15.7073C0.488654 15.9024 0.744822 16.0002 1.00066 16.0002C1.25649 16.0002 1.51266 15.9024 1.70812 15.707L8.00058 9.41484L14.2927 15.707C14.4882 15.9024 14.7443 16.0002 15.0002 16.0002C15.256 16.0002 15.5122 15.9024 15.7076 15.707C16.0986 15.3164 16.0986 14.6826 15.7076 14.292L9.41551 8.00025Z" fill="#263238"/>
</svg>
