<svg width="25" height="17" viewBox="0 0 25 17" fill="none" xmlns="http://www.w3.org/2000/svg">
<g clip-path="url(#clip0)">
<path d="M23.7179 0.67395H1.28208C0.576903 0.67395 0 1.22778 0 1.9047V15.4432C0 16.12 0.576903 16.674 1.28208 16.674H23.7179C24.423 16.674 25 16.1201 25 15.4432V1.9047C25 1.22778 24.423 0.67395 23.7179 0.67395ZM23.2368 1.59696L13.2375 8.79704C13.0577 8.92839 12.7817 9.01056 12.4999 9.00934C12.2182 9.01056 11.9423 8.92839 11.7624 8.79704L1.76313 1.59696H23.2368ZM17.8955 9.27212L23.3442 15.7337C23.3497 15.7402 23.3564 15.7451 23.3622 15.7509H1.63779C1.64355 15.7448 1.65029 15.7402 1.65576 15.7337L7.10448 9.27212C7.27142 9.07398 7.23978 8.7835 7.03299 8.62286C6.8266 8.46259 6.52401 8.49297 6.35702 8.69115L0.961522 15.0896V2.1739L11.1858 9.53542C11.5701 9.8102 12.0377 9.93114 12.4999 9.93235C12.9614 9.93142 13.4294 9.81048 13.8139 9.53542L24.0382 2.1739V15.0895L18.6429 8.69115C18.4759 8.49301 18.173 8.46254 17.9669 8.62286C17.7602 8.78312 17.7284 9.07398 17.8955 9.27212Z" fill="#F7C0C4"/>
</g>
<defs>
<clipPath id="clip0">
<rect width="25" height="16" fill="white" transform="translate(0 0.67395)"/>
</clipPath>
</defs>
</svg>
