<svg viewBox="0 0 252 50" fill="none" xmlns="http://www.w3.org/2000/svg">
<path d="M55.2145 16.0323C55.2145 16.0062 55.3963 15.9671 55.7728 15.915C56.1364 15.8498 56.6947 15.8237 57.3958 15.8759C58.785 15.9802 60.9143 16.5537 62.784 18.3655C64.6406 20.1121 66.0299 23.2925 65.3028 26.7075C64.9652 28.3889 64.0953 30.0704 62.745 31.3608C61.4207 32.6903 59.603 33.5766 57.6425 33.8634C55.6819 34.111 53.6825 33.733 52.0465 32.8206C50.3976 31.9343 49.1252 30.5396 48.3462 29.0146C46.7362 25.9254 47.2296 22.4713 48.5539 20.3076C49.8653 18.0657 51.7738 16.9447 53.0852 16.4755C53.7474 16.2278 54.2927 16.1105 54.6562 16.0714C55.0068 16.0193 55.2015 16.0062 55.2145 16.0323C55.2275 16.1105 54.4485 16.1887 53.1761 16.7231C51.9297 17.2575 50.1639 18.3915 48.9824 20.5552C47.7879 22.6407 47.3854 25.8602 48.9174 28.7148C49.6575 30.1225 50.852 31.3999 52.3711 32.208C53.8772 33.0552 55.7209 33.3941 57.5386 33.1595C59.3433 32.8988 61.0312 32.0777 62.2646 30.8655C63.5241 29.6793 64.3291 28.1282 64.6666 26.5771C65.3807 23.4228 64.1473 20.4249 62.4334 18.7304C60.7196 16.9708 58.7071 16.3451 57.3698 16.1626C55.9935 15.9802 55.2145 16.1105 55.2145 16.0323Z" fill="#6EC5AE"/>
<path d="M58.5383 4.73149C58.5383 4.74453 58.4864 4.64025 58.4085 4.45777C58.3176 4.23619 58.2007 3.94943 58.0579 3.58446C57.7333 2.76329 57.2789 1.60323 56.7076 0.11731L56.8245 0.195518C54.7341 0.49531 52.0075 0.886344 48.7227 1.36862L48.8785 1.19917C48.7616 2.69813 48.6188 4.36653 48.476 6.15224L48.463 6.28259L48.3461 6.33472C46.8141 6.98644 45.269 7.87279 43.8019 9.01981L43.698 9.11106L43.5682 9.04588C42.1659 8.4072 40.6339 7.71637 39.0499 6.99948L39.3614 6.92127C37.8034 8.98071 36.1545 11.1835 34.4277 13.4776L34.4147 13.1257C35.4014 14.2987 36.4921 15.6022 37.6086 16.9317L37.7255 17.062L37.6606 17.2315C37.0374 18.7565 36.557 20.5031 36.3363 22.341L36.3103 22.5235L36.1415 22.5886C34.7003 23.1361 33.1293 23.7226 31.5064 24.3352L31.7141 23.9964C32.0646 26.5511 32.4412 29.3144 32.8307 32.1429L32.5321 31.8561C34.0641 31.9864 35.752 32.1429 37.4658 32.2862L37.6736 32.2993L37.7515 32.4948C38.3877 34.0198 39.2836 35.597 40.4002 37.0438L40.53 37.2132L40.4391 37.4088C39.8029 38.8295 39.1018 40.3676 38.3877 41.9317L38.2838 41.5146C40.3482 43.0918 42.5554 44.7732 44.8016 46.4937L44.3602 46.5068C45.5547 45.5031 46.853 44.4082 48.1514 43.3134L48.3202 43.17L48.5149 43.2482C50.06 43.8869 51.7998 44.3691 53.5786 44.5907C53.7084 44.695 53.2929 44.3561 53.8642 44.8253V44.8384L53.8772 44.8514L53.8901 44.8905L53.9161 44.9687L53.968 45.1121L54.0719 45.3989L54.2926 45.9854L54.7211 47.1585C55.0068 47.9406 55.2924 48.7096 55.578 49.4786L55.2015 49.257C57.9411 48.879 60.6546 48.5141 63.3163 48.1491L63.0176 48.4619C63.1605 46.7935 63.3163 45.1512 63.4591 43.5089L63.4721 43.3003L63.6668 43.2221C65.3028 42.5443 66.8349 41.6449 68.1981 40.5761L68.3669 40.4458L68.5617 40.537C70.0808 41.2409 71.5869 41.9187 73.067 42.5965L72.6515 42.7007C74.3524 40.4718 76.0013 38.2951 77.6242 36.1705L77.6372 36.5746C76.5596 35.2842 75.5079 34.0068 74.4692 32.7555L74.3394 32.6121L74.4173 32.4296C75.1054 30.7612 75.5469 29.0407 75.7676 27.3332L75.7935 27.1507L75.9623 27.0855C77.5463 26.499 79.0914 25.9124 80.5975 25.3519L80.4028 25.6648C80.0262 22.7972 79.6627 20.086 79.3251 17.5183L79.5718 17.7529C77.845 17.5965 76.209 17.44 74.651 17.2967L74.4952 17.2836L74.4303 17.1403C73.7162 15.3936 72.8073 13.8817 71.7946 12.5521L71.7037 12.4348L71.7687 12.3045C72.5217 10.6622 73.1968 9.18926 73.846 7.79458L73.9109 8.05527C71.4051 6.11314 69.2628 4.45777 67.4191 3.03702H67.6139C66.0948 4.28832 64.8354 5.33107 63.7967 6.19135L63.7447 6.23045L63.6798 6.20438C62.0309 5.50052 60.7196 5.1877 59.8626 4.99218C59.4601 4.91398 59.1355 4.8488 58.8889 4.79666C58.6422 4.75756 58.5383 4.73149 58.5383 4.73149C58.5383 4.71846 58.6552 4.7315 58.8629 4.74453C59.0836 4.7706 59.4082 4.8097 59.8496 4.87487C60.7195 5.03128 62.0439 5.30501 63.7318 5.98279L63.6149 5.99583C64.6536 5.10949 65.8741 4.0537 67.3802 2.77633L67.471 2.69812L67.5749 2.77633C69.4316 4.17101 71.5869 5.80032 74.1187 7.71637L74.2485 7.82065L74.1836 7.97706C73.5604 9.38478 72.8852 10.8577 72.1581 12.513L72.1322 12.2784C73.1839 13.621 74.1187 15.1721 74.8717 16.9578L74.664 16.8014C76.235 16.9317 77.858 17.0751 79.5978 17.2185L79.8185 17.2315L79.8444 17.4531C80.195 20.0339 80.5716 22.732 80.974 25.5996L81 25.8342L80.7793 25.9124C79.2732 26.4859 77.7411 27.0594 76.1441 27.659L76.3389 27.4114C76.1182 29.184 75.6637 30.9567 74.9626 32.6773L74.9107 32.3514C75.9494 33.6027 77.014 34.867 78.0917 36.1575L78.2605 36.353L78.1046 36.5615C76.4947 38.6861 74.8457 40.8759 73.1579 43.1048L72.9891 43.3264L72.7424 43.2091C71.2623 42.5313 69.7562 41.8535 68.2371 41.1496L68.5876 41.1105C67.1724 42.2185 65.5884 43.1439 63.9005 43.8608L64.1083 43.574C63.9655 45.2033 63.8226 46.8587 63.6798 48.5271L63.6539 48.8139L63.3812 48.853C60.7195 49.2179 58.006 49.5829 55.2664 49.9609L54.9808 50L54.8769 49.7393C54.5913 48.9703 54.3056 48.2013 54.007 47.4192L53.5786 46.2461L53.3578 45.6595L53.254 45.3728L53.202 45.2294L53.1761 45.1512L53.1631 45.1121L53.1501 45.0991V45.086C53.7214 45.5422 53.3059 45.2164 53.4357 45.3207C51.5791 45.086 49.7873 44.5907 48.1903 43.926L48.5539 43.8738C47.2555 44.9687 45.9571 46.0506 44.7626 47.0673L44.542 47.2497L44.3212 47.0803C42.075 45.3598 39.8678 43.6783 37.8034 42.1012L37.5827 41.9317L37.6995 41.684C38.4136 40.1199 39.1148 38.5819 39.751 37.1611L39.7899 37.513C38.6344 36.0141 37.7125 34.3848 37.0634 32.8076L37.349 33.0162C35.6481 32.8598 33.9603 32.7164 32.4282 32.573L32.1685 32.5469L32.1296 32.2862C31.753 29.4578 31.3895 26.6945 31.0389 24.1397L31 23.8921L31.2337 23.8008C32.8437 23.2013 34.4277 22.6017 35.8688 22.0673L35.6741 22.3149C35.9078 20.4249 36.4272 18.6131 37.0764 17.062L37.1283 17.3618C36.0247 16.0323 34.947 14.7289 33.9602 13.5428L33.8174 13.3733L33.9473 13.1908C35.7001 10.8968 37.362 8.72002 38.933 6.66058L39.0629 6.50417L39.2446 6.58238C40.8156 7.31231 42.3347 8.01616 43.7369 8.66788L43.5032 8.69395C45.0223 7.52086 46.6063 6.63452 48.1774 5.98279L48.0475 6.15224C48.2163 4.36653 48.3721 2.71116 48.5149 1.2122L48.5279 1.06882L48.6707 1.05579C51.9686 0.638688 54.7081 0.28676 56.7985 0.0130372L56.8894 0L56.9154 0.0782083C57.4477 1.56413 57.8502 2.72419 58.1488 3.54536C58.2786 3.92336 58.3825 4.21011 58.4604 4.44473C58.5124 4.61418 58.5513 4.71846 58.5383 4.73149Z" fill="#6EC5AE"/>
<path d="M102.895 35L98.3648 28.55C97.8048 28.59 97.3648 28.61 97.0448 28.61H91.8548V35H88.8548V14H97.0448C99.7648 14 101.905 14.65 103.465 15.95C105.025 17.25 105.805 19.04 105.805 21.32C105.805 22.94 105.405 24.32 104.605 25.46C103.805 26.6 102.665 27.43 101.185 27.95L106.165 35H102.895ZM96.9548 26.06C98.8548 26.06 100.305 25.65 101.305 24.83C102.305 24.01 102.805 22.84 102.805 21.32C102.805 19.8 102.305 18.64 101.305 17.84C100.305 17.02 98.8548 16.61 96.9548 16.61H91.8548V26.06H96.9548ZM125.202 24.38H128.082V32.57C127.042 33.43 125.832 34.09 124.452 34.55C123.072 35.01 121.632 35.24 120.132 35.24C118.012 35.24 116.102 34.78 114.402 33.86C112.702 32.92 111.362 31.64 110.382 30.02C109.422 28.38 108.942 26.54 108.942 24.5C108.942 22.46 109.422 20.62 110.382 18.98C111.362 17.34 112.702 16.06 114.402 15.14C116.122 14.22 118.052 13.76 120.192 13.76C121.872 13.76 123.392 14.04 124.752 14.6C126.132 15.14 127.302 15.94 128.262 17L126.402 18.86C124.722 17.24 122.692 16.43 120.312 16.43C118.712 16.43 117.272 16.78 115.992 17.48C114.732 18.16 113.742 19.12 113.022 20.36C112.302 21.58 111.942 22.96 111.942 24.5C111.942 26.02 112.302 27.4 113.022 28.64C113.742 29.86 114.732 30.82 115.992 31.52C117.272 32.22 118.702 32.57 120.282 32.57C122.162 32.57 123.802 32.12 125.202 31.22V24.38ZM147.206 29.75H136.046L133.736 35H130.646L140.156 14H143.126L152.666 35H149.516L147.206 29.75ZM146.156 27.35L141.626 17.06L137.096 27.35H146.156ZM173.858 14V35H171.398L158.798 19.34V35H155.798V14H158.258L170.858 29.66V14H173.858ZM180.144 14H183.144V35H180.144V14ZM205.121 32.39V35H187.571V32.96L200.771 16.61H187.781V14H204.731V16.04L191.591 32.39H205.121ZM224.388 32.39V35H209.148V14H223.968V16.61H212.148V23.06H222.678V25.61H212.148V32.39H224.388ZM229.245 14H238.095C240.315 14 242.285 14.44 244.005 15.32C245.725 16.2 247.055 17.44 247.995 19.04C248.955 20.62 249.435 22.44 249.435 24.5C249.435 26.56 248.955 28.39 247.995 29.99C247.055 31.57 245.725 32.8 244.005 33.68C242.285 34.56 240.315 35 238.095 35H229.245V14ZM237.915 32.39C239.615 32.39 241.105 32.06 242.385 31.4C243.685 30.74 244.685 29.82 245.385 28.64C246.085 27.44 246.435 26.06 246.435 24.5C246.435 22.94 246.085 21.57 245.385 20.39C244.685 19.19 243.685 18.26 242.385 17.6C241.105 16.94 239.615 16.61 237.915 16.61H232.245V32.39H237.915Z" fill="white"/>
<path d="M13.0323 35.24C10.9123 35.24 9.00234 34.78 7.30234 33.86C5.60234 32.92 4.26234 31.63 3.28234 29.99C2.32234 28.35 1.84234 26.52 1.84234 24.5C1.84234 22.48 2.32234 20.65 3.28234 19.01C4.26234 17.37 5.60234 16.09 7.30234 15.17C9.00234 14.23 10.9123 13.76 13.0323 13.76C15.1323 13.76 17.0323 14.23 18.7323 15.17C20.4323 16.09 21.7623 17.37 22.7223 19.01C23.6823 20.63 24.1623 22.46 24.1623 24.5C24.1623 26.54 23.6823 28.38 22.7223 30.02C21.7623 31.64 20.4323 32.92 18.7323 33.86C17.0323 34.78 15.1323 35.24 13.0323 35.24ZM13.0323 32.57C14.5723 32.57 15.9523 32.22 17.1723 31.52C18.4123 30.82 19.3823 29.86 20.0823 28.64C20.8023 27.4 21.1623 26.02 21.1623 24.5C21.1623 22.98 20.8023 21.61 20.0823 20.39C19.3823 19.15 18.4123 18.18 17.1723 17.48C15.9523 16.78 14.5723 16.43 13.0323 16.43C11.4923 16.43 10.0923 16.78 8.83234 17.48C7.59234 18.18 6.61234 19.15 5.89234 20.39C5.19234 21.61 4.84234 22.98 4.84234 24.5C4.84234 26.02 5.19234 27.4 5.89234 28.64C6.61234 29.86 7.59234 30.82 8.83234 31.52C10.0923 32.22 11.4923 32.57 13.0323 32.57Z" fill="white"/>
</svg>
